PathFileType	4	(X/Y/Z)	C:/Users/opensim2020/Desktop/walking_exp_matlab/subject02_walking04_straight_02.trc																																																																																																																												
DataRate	CameraRate	NumFrames	NumMarkers	Units	OrigDataRate	OrigDataStartFrame	OrigNumFrames																																																																																																																								
100	100	8	42	mm	100	1633	220																																																																																																																								
Frame#	Time	LFHD			RFHD			LBHD			RBHD			C7			T10			CLAV			STRN			RBAK			LSHO			LUPA			LELB			LFRM			LWRA			LWRB			LFIN			RSHO			RUPA			RELB			RFRM			RWRA			RWRB			RFIN			LASI			RASI			LPSI			RPSI			LTHI			LKNE			LTIB			LANK			LHEE			LTOE			RTHI			RKNE			RTIB			RANK			RHEE			RTOE			*39			*40			*41		
		X1	Y1	Z1	X2	Y2	Z2	X3	Y3	Z3	X4	Y4	Z4	X5	Y5	Z5	X6	Y6	Z6	X7	Y7	Z7	X8	Y8	Z8	X9	Y9	Z9	X10	Y10	Z10	X11	Y11	Z11	X12	Y12	Z12	X13	Y13	Z13	X14	Y14	Z14	X15	Y15	Z15	X16	Y16	Z16	X17	Y17	Z17	X18	Y18	Z18	X19	Y19	Z19	X20	Y20	Z20	X21	Y21	Z21	X22	Y22	Z22	X23	Y23	Z23	X24	Y24	Z24	X25	Y25	Z25	X26	Y26	Z26	X27	Y27	Z27	X28	Y28	Z28	X29	Y29	Z29	X30	Y30	Z30	X31	Y31	Z31	X32	Y32	Z32	X33	Y33	Z33	X34	Y34	Z34	X35	Y35	Z35	X36	Y36	Z36	X37	Y37	Z37	X38	Y38	Z38	X39	Y39	Z39	X40	Y40	Z40	X41	Y41	Z41	X42	Y42	Z42
																																																																																																																															
138	1.37	151.69446	1732.50342	-1492.65552	132.4357	1708.44141	-1351.51758	18.65403	1667.31396	-1520.18347	-12.53351	1643.28186	-1381.37561	-54.14488	1525.34106	-1448.85352	-110.55951	1248.61707	-1428.99243	81.63078	1451.41357	-1461.724	131.77504	1280.81238	-1452.11267	-113.99603	1352.20203	-1378.91919	10.62854	1495.71716	-1630.12549	0.2465	1295.08643	-1710.68201	8.05273	1153.40173	-1725.23193	39.39936	1024.38672	-1739.01416	120.94838	912.2674	-1712.34302	72.89819	905.909	-1742.01526	103.22781	846.71692	-1746.65039	25.71173	1488.91003	-1263.87781	-15.56557	1303.40942	-1175.79358	-11.86347	1157.23865	-1155.14441	9.40597	1040.09241	-1131.37256	52.32631	911.13611	-1142.97998	3.85948	910.79034	-1113.51721	39.0774	848.01337	-1105.87891	103.69971	977.73651	-1574.80969	139.213	979.13165	-1319.94031	-92.3176	1026.67126	-1464.37573	-80.94718	1034.25769	-1349.62842	47.59589	671.67511	-1637.61047	37.77719	487.96606	-1626.69019	-111.28847	382.58215	-1599.4082	-246.07004	209.01492	-1560.47351	-269.7843	201.29433	-1497.28784	-177.45782	77.5033	-1613.02502	101.69444	674.13849	-1250.39661	111.4537	465.66302	-1301.04919	76.36543	279.33832	-1297.59875	56.64756	88.88432	-1341.80762	19.36222	36.79001	-1397.94897	209.67078	36.39156	-1336.99146	43.69837	1801.94177	-1412.68384	NaN	NaN	NaN	NaN	NaN	NaN
139	1.38	161.1801	1733.49976	-1492.40137	142.36438	1709.71558	-1351.151	27.96947	1668.41199	-1519.37341	-2.78007	1644.71765	-1380.43726	-44.73362	1526.86218	-1447.38135	-101.89006	1250.39697	-1426.69226	90.82353	1452.44653	-1460.88696	140.4944	1281.70947	-1451.29468	-104.9062	1354.34521	-1376.6051	19.24101	1496.5343	-1628.76135	5.88209	1295.75415	-1708.72363	11.57435	1154.0575	-1722.76965	39.349	1024.3999	-1736.43689	117.4284	909.64978	-1709.52527	69.36117	904.98767	-1739.44165	97.81525	844.36304	-1743.36865	36.40779	1490.6488	-1263.03687	-3.04672	1305.33228	-1173.65515	2.03996	1159.11023	-1152.26367	25.20506	1042.03845	-1128.52271	69.41612	913.74365	-1140.92883	21.416	912.80518	-1110.74646	57.55576	850.43164	-1103.45874	111.53735	979.66809	-1574.13879	146.8232	979.56647	-1318.3811	-84.36599	1028.43311	-1462.88708	-72.95827	1035.3833	-1348.27783	61.12856	674.164	-1637.61365	54.71816	490.05249	-1626.29895	-92.37411	382.74356	-1597.09009	-223.76099	206.40875	-1557.76978	-247.45779	197.89383	-1494.67676	-151.86552	77.75761	-1611.53638	105.90807	674.08667	-1249.80396	112.84261	465.40457	-1300.65662	76.35192	279.59088	-1297.46729	56.67979	89.01131	-1341.97791	19.3892	36.8584	-1398.06604	209.69005	36.30494	-1336.93213	53.50973	1803.26501	-1412.20422	NaN	NaN	NaN	NaN	NaN	NaN
140	1.39	170.82751	1734.27283	-1492.00476	152.2504	1710.91296	-1350.92212	37.42848	1669.3335	-1518.3374	6.99573	1646.05444	-1379.54102	-35.35715	1528.22974	-1445.94397	-93.26798	1252.05823	-1424.50146	99.94457	1453.38232	-1460.07471	149.14854	1282.53845	-1450.41089	-95.64463	1356.18054	-1374.26367	27.49194	1497.47937	-1627.80017	11.61763	1296.38721	-1706.84717	14.86519	1154.77161	-1720.40405	39.18091	1024.52539	-1733.93274	113.91886	907.63379	-1707.0481	65.91281	904.32892	-1737.06897	92.07201	842.8056	-1740.70728	47.05604	1492.41223	-1262.14355	9.45562	1307.16199	-1171.46069	15.94839	1160.96252	-1149.39917	40.86732	1044.36084	-1126.32129	86.79902	916.57916	-1138.99109	39.17059	914.93903	-1108.00732	76.33147	853.10742	-1101.24133	119.63229	981.73346	-1573.16028	154.42712	980.24878	-1316.71338	-76.32778	1030.01575	-1461.65588	-65.10415	1036.25159	-1347.22339	74.4515	676.62402	-1637.547	71.44521	492.01147	-1625.74304	-73.40108	382.1655	-1595.27258	-200.90146	202.89442	-1555.57507	-224.74095	193.55901	-1492.59351	-125.31583	77.25317	-1609.95251	109.1891	673.92407	-1249.33508	114.85469	465.43454	-1300.25623	76.37845	279.76968	-1296.89917	56.7648	89.0882	-1342.06677	19.43055	36.89066	-1398.26807	209.69806	36.24834	-1336.87036	63.35558	1804.45752	-1411.83447	NaN	NaN	NaN	NaN	NaN	NaN
141	1.4	180.25706	1735.07141	-1492.0575	162.23067	1712.01331	-1350.81299	46.46806	1670.32654	-1517.96899	16.69304	1647.30176	-1378.68152	-26.12288	1529.51819	-1444.52527	-84.70439	1253.59143	-1422.43103	108.9634	1454.26636	-1459.29407	157.67584	1283.26685	-1449.51697	-85.98536	1357.83899	-1371.69202	35.8681	1498.20715	-1626.63586	17.09668	1297.18677	-1705.36523	18.00491	1155.47656	-1718.14746	39.03635	1024.797	-1731.54309	110.51168	905.76764	-1704.3894	62.58199	903.86536	-1734.64172	86.77129	841.47455	-1737.85767	57.68611	1494.1095	-1261.24158	22.32064	1308.93311	-1168.98755	29.99139	1162.88062	-1146.62573	56.7086	1046.38135	-1123.80933	104.30411	919.46832	-1137.16101	57.18317	917.18182	-1105.34546	95.33575	855.94666	-1099.08716	128.09282	983.91827	-1571.81519	161.93222	980.97504	-1314.90747	-68.32097	1031.40674	-1460.84314	-57.31714	1036.8689	-1346.50342	87.42544	679.01239	-1637.3916	87.66347	494.04099	-1625.21545	-54.43298	380.8414	-1593.88232	-177.44582	198.37001	-1553.76123	-201.37697	188.19127	-1490.79041	-97.35974	76.07818	-1608.30042	112.26623	673.73016	-1249.07996	116.67621	465.21713	-1299.67456	77.13167	279.82745	-1296.65393	56.72784	89.13502	-1342.28027	20.01301	36.5084	-1399.45398	209.61124	36.00062	-1336.90259	73.21006	1805.52429	-1411.62073	NaN	NaN	NaN	NaN	NaN	NaN
142	1.41	189.53329	1735.75708	-1492.38525	172.12215	1712.97449	-1350.7489	55.67682	1671.06677	-1517.36414	26.38205	1648.47473	-1377.92212	-17.1	1530.70154	-1443.11353	-76.19543	1254.92981	-1420.61194	117.88717	1455.0238	-1458.5979	166.1373	1283.8894	-1448.64038	-77.24603	1359.47034	-1369.78149	44.15081	1498.80505	-1625.52124	22.76112	1297.83496	-1703.77271	20.99418	1156.18799	-1715.96973	38.74076	1025.22693	-1729.45886	107.09315	904.09943	-1701.75806	59.21763	903.62604	-1732.2417	81.83231	840.20398	-1734.91028	67.91954	1495.70581	-1260.46033	35.65715	1310.93481	-1166.50122	44.042	1164.78259	-1143.87122	72.4241	1048.60242	-1121.35266	121.77533	922.4342	-1135.36169	75.30769	919.57855	-1102.7439	114.50983	858.88147	-1097.12451	136.75777	986.15387	-1570.1731	169.23444	981.81171	-1313.16638	-60.18967	1032.59302	-1460.47083	-49.64006	1037.37158	-1346.15735	100.10233	681.297	-1637.2168	103.65069	495.85791	-1624.52942	-35.62603	378.97891	-1592.96704	-153.31367	193.02779	-1552.17957	-176.97229	181.52185	-1489.15112	-68.49108	74.15961	-1606.69385	115.22676	673.74835	-1248.95764	118.76041	465.02441	-1299.3042	78.339	279.88721	-1296.45886	56.84185	89.26341	-1342.31091	19.10628	36.72847	-1398.31738	209.53185	36.05866	-1336.5719	83.05772	1806.59351	-1411.54675	NaN	NaN	NaN	NaN	NaN	NaN
143	1.42	198.86127	1736.10999	-1492.61487	182.07381	1713.75867	-1350.8363	64.98742	1671.54614	-1516.5011	36.08817	1649.52625	-1377.14587	-7.99474	1531.75378	-1441.85364	-67.66106	1256.07471	-1418.93616	126.81319	1455.71521	-1457.93811	174.4781	1284.46484	-1447.73511	-68.2264	1360.94873	-1368.00439	52.36288	1499.29114	-1624.50769	28.34866	1298.36523	-1702.27319	23.69365	1157.0752	-1714.12817	38.61245	1025.63916	-1727.27209	103.86522	902.78864	-1699.26013	56.13112	903.55042	-1730.05591	76.78264	839.58392	-1732.58508	78.26212	1497.16467	-1259.52698	47.65591	1312.47083	-1165.3374	57.92147	1166.64136	-1141.16174	89.23965	1051.07971	-1118.7876	139.48717	925.49756	-1133.65723	93.46937	921.96777	-1100.27075	133.72592	861.90405	-1095.17688	145.64787	988.39154	-1568.31165	176.43105	982.55261	-1311.36597	-52.07069	1033.61279	-1460.40723	-42.1229	1037.72046	-1346.05835	112.5665	683.37122	-1637.00171	119.36493	497.48572	-1623.79224	-16.75052	376.38937	-1592.22498	-128.21523	186.51674	-1550.52258	-151.90938	174.31142	-1487.76611	-39.03754	71.66784	-1605.35242	118.65504	673.3844	-1248.54651	120.82511	464.81281	-1299.12695	79.84547	279.89508	-1296.35242	57.03623	89.39175	-1342.35437	19.14805	36.86151	-1398.42175	209.50327	36.01798	-1336.44128	92.96693	1807.33569	-1411.44531	NaN	NaN	NaN	NaN	NaN	NaN
144	1.43	208.36009	1736.24585	-1492.64697	192.03435	1714.4585	-1351.02759	74.05202	1672.07471	-1515.96692	45.70937	1650.51086	-1376.50439	0.98745	1532.70105	-1440.64343	-59.12944	1257.01648	-1417.37573	135.58934	1456.2937	-1457.26819	182.70622	1284.84558	-1446.68481	-58.86551	1361.96655	-1365.77954	60.44561	1499.62891	-1623.51599	33.81837	1298.89087	-1700.92395	26.48175	1157.77905	-1712.17822	38.46475	1026.08643	-1725.22559	100.73406	901.56012	-1696.75342	53.17544	903.56885	-1727.82922	72.21144	839.04822	-1730.05164	88.00009	1498.59021	-1258.97388	59.80489	1314.20898	-1163.01624	72.24018	1168.50903	-1138.78613	104.66801	1053.27625	-1116.91089	157.17697	928.59503	-1132.04529	111.75484	924.36719	-1097.93884	153.12038	864.9765	-1093.33386	154.48734	990.37103	-1566.203	183.59535	983.1449	-1309.53796	-43.83601	1034.49084	-1460.63159	-34.66119	1038.0282	-1346.23962	124.80314	685.38544	-1636.78406	134.9283	498.8028	-1622.81665	2.24853	373.24631	-1591.7113	-102.80392	179.59775	-1549.45459	-126.23443	166.57307	-1486.8866	-8.93751	68.70644	-1604.3208	122.26372	673.33472	-1248.20361	123.19404	464.41199	-1298.86011	81.35584	279.83789	-1296.3335	57.28601	89.50459	-1342.43567	19.1103	37.02248	-1398.48779	209.48381	35.97126	-1336.26685	102.83292	1808.073	-1411.43188	NaN	NaN	NaN	NaN	NaN	NaN
145	1.44	217.51044	1736.40833	-1493.23535	201.86296	1714.91675	-1351.18994	82.84866	1672.57312	-1515.85632	55.27459	1651.40088	-1375.79346	9.85575	1533.53296	-1439.47363	-50.69543	1257.83655	-1416.04395	144.16803	1456.69214	-1456.67798	191.07001	1285.23083	-1445.78467	-49.74343	1362.88013	-1363.75073	68.37178	1499.86841	-1622.61548	39.15801	1299.37622	-1699.63232	29.27015	1158.42493	-1710.34961	38.59201	1026.40918	-1723.07825	97.85674	900.82086	-1694.4967	50.41157	903.69525	-1725.75525	68.16812	838.51147	-1727.46777	97.71531	1499.84851	-1258.48828	72.42943	1315.77759	-1161.30725	86.13461	1170.19519	-1136.26025	120.83688	1055.56152	-1114.57678	174.90781	931.61145	-1130.54736	130.0426	926.76697	-1095.75586	172.47581	868.09479	-1091.64478	163.11325	991.92578	-1563.97412	190.72514	983.63	-1307.77698	-35.58158	1035.32666	-1461.09705	-27.27498	1038.28479	-1346.62939	137.08795	687.20679	-1636.31824	149.79028	500.09299	-1622.00073	21.30211	369.35764	-1591.38049	-76.66094	172.04462	-1548.75598	-99.67525	157.69008	-1486.11841	21.72741	65.40509	-1603.65247	126.4644	673.1839	-1247.82764	125.55967	464.23529	-1298.80371	82.7001	279.86069	-1296.43079	57.10382	89.56635	-1342.65698	19.11845	37.028	-1398.68713	209.5249	35.91807	-1336.1416	112.77294	1808.65991	-1411.49365	NaN	NaN	NaN	NaN	NaN	NaN
